<svg xmlns="http://www.w3.org/2000/svg" width="117" height="51" viewBox="0 0 117 51">
  <path fill="#FFFFFF" d="M110.610893,24.8874251 L105.546357,24.8874251 L108.118362,17.5700599 L110.610893,24.8874251 Z M117,31.8155689 L109.597986,11.6538922 L106.481349,11.6538922 L99.0793347,31.8155689 L103.208879,31.8155689 L104.456313,28.2347305 L111.701716,28.2347305 L112.870455,31.8155689 L117,31.8155689 Z M102.118835,15.1568862 L102.118835,11.6538922 L87.4706394,11.6538922 L87.4706394,15.1568862 L92.7689231,15.1568862 L92.7689231,31.8155689 L96.7418566,31.8155689 L96.7418566,15.1568862 L102.118835,15.1568862 Z M85.5998778,31.8155689 L85.5998778,28.0790419 L76.1728287,28.0790419 L76.1728287,23.3305389 L84.1981701,23.3305389 L84.1981701,19.8275449 L76.1728287,19.8275449 L76.1728287,15.0790419 L85.6777937,15.0790419 L85.6777937,11.5760479 L72.1983368,11.5760479 L72.1983368,31.8155689 L85.5998778,31.8155689 Z M70.0166906,31.8155689 L70.0166906,11.6538922 L66.1208938,11.6538922 L60.8233893,22.5520958 L55.5251056,11.5760479 L51.6293088,11.5760479 L51.6293088,31.8155689 L55.6022424,31.8155689 L55.6022424,19.9832335 L59.4980392,27.611976 L62.1479602,27.611976 L66.043757,19.9832335 L66.043757,31.8155689 L70.0166906,31.8155689 Z M0,33 L0,36 C0,39.6586826 2.42060839,42 6.00552061,42 L24.0220824,42 L24.0220824,51 L33.0303633,42 L35.0322035,42 C38.6942525,42 41.0377241,39.8143713 41.0377241,36 L41.0377241,33 L0,33 Z M6.00552061,0 C2.42060839,0 0,2.10778443 0,6 L0,9 L41.0377241,9 L41.0377241,6 C41.0377241,2.10778443 38.6171158,0 35.0322035,0 L6.00552061,0 Z M0,20 L41.0377241,20 L41.0377241,11 L0,11 L0,20 Z M0,31 L41.0377241,31 L41.0377241,22 L0,22 L0,31 Z"/>
</svg>
